# This file was created with Minddesk Qubicle 2.0
# Get Qubicle at www.minddesk.com

mtllib Chair2.mtl

vn 0.0 0.0 1.0
vn 0.0 0.0 -1.0
vn -1.0 0.0 0.0
vn 1.0 0.0 0.0
vn 0.0 1.0 0.0
vn 0.0 -1.0 0.0

v -0.50000 3.50000 -54.50000
v -0.50000 -0.50000 -54.50000
v -1.50000 -0.50000 -54.50000
v -1.50000 3.50000 -54.50000
v -0.50000 3.50000 -50.50000
v -0.50000 -0.50000 -50.50000
v -1.50000 -0.50000 -50.50000
v -1.50000 3.50000 -50.50000
v 3.50000 3.50000 -54.50000
v 3.50000 -0.50000 -54.50000
v 2.50000 -0.50000 -54.50000
v 2.50000 3.50000 -54.50000
v 3.50000 3.50000 -50.50000
v 3.50000 -0.50000 -50.50000
v 2.50000 -0.50000 -50.50000
v 2.50000 3.50000 -50.50000
v -0.50000 8.50000 -54.50000
v -0.50000 6.50000 -54.50000
v -1.50000 6.50000 -54.50000
v -1.50000 8.50000 -54.50000
v 3.50000 8.50000 -54.50000
v 3.50000 6.50000 -54.50000
v 2.50000 6.50000 -54.50000
v 2.50000 8.50000 -54.50000
v 3.50000 4.50000 -54.50000
v -1.50000 4.50000 -54.50000
v 3.50000 5.50000 -54.50000
v -1.50000 5.50000 -54.50000
v 3.50000 9.50000 -54.50000
v -1.50000 9.50000 -54.50000
v -0.50000 5.50000 -54.50000
v -0.50000 4.50000 -54.50000
v 2.50000 4.50000 -54.50000
v 2.50000 5.50000 -54.50000
v -1.50000 3.50000 -53.50000
v -1.50000 -0.50000 -53.50000
v -0.50000 -0.50000 -53.50000
v -0.50000 3.50000 -53.50000
v -1.50000 3.50000 -49.50000
v -1.50000 -0.50000 -49.50000
v -0.50000 -0.50000 -49.50000
v -0.50000 3.50000 -49.50000
v 2.50000 3.50000 -53.50000
v 2.50000 -0.50000 -53.50000
v 3.50000 -0.50000 -53.50000
v 3.50000 3.50000 -53.50000
v 2.50000 3.50000 -49.50000
v 2.50000 -0.50000 -49.50000
v 3.50000 -0.50000 -49.50000
v 3.50000 3.50000 -49.50000
v -1.50000 8.50000 -53.50000
v -1.50000 6.50000 -53.50000
v -0.50000 6.50000 -53.50000
v -0.50000 8.50000 -53.50000
v 2.50000 8.50000 -53.50000
v 2.50000 6.50000 -53.50000
v 3.50000 6.50000 -53.50000
v 3.50000 8.50000 -53.50000
v -1.50000 4.50000 -49.50000
v 3.50000 4.50000 -49.50000
v -1.50000 5.50000 -53.50000
v 3.50000 5.50000 -53.50000
v -1.50000 9.50000 -53.50000
v 3.50000 9.50000 -53.50000
v -1.50000 4.50000 -53.50000
v -0.50000 4.50000 -53.50000
v -0.50000 5.50000 -53.50000
v 2.50000 5.50000 -53.50000
v 2.50000 4.50000 -53.50000
v 3.50000 4.50000 -53.50000

vt 0.01563 0.25000
vt 0.01563 0.01563
vt 0.06250 0.01563
vt 0.06250 0.25000
vt 0.09375 0.25000
vt 0.09375 0.01563
vt 0.14063 0.01563
vt 0.14063 0.25000
vt 0.17188 0.20313
vt 0.17188 0.01563
vt 0.40625 0.01563
vt 0.40625 0.20313
vt 0.43750 0.20313
vt 0.43750 0.01563
vt 0.48438 0.01563
vt 0.48438 0.20313
vt 0.51563 0.20313
vt 0.51563 0.01563
vt 0.56250 0.01563
vt 0.56250 0.20313
vt 0.59375 0.20313
vt 0.59375 0.01563
vt 0.64063 0.01563
vt 0.64063 0.20313
vt 0.67188 0.20313
vt 0.67188 0.01563
vt 0.71875 0.01563
vt 0.71875 0.20313
vt 0.75000 0.20313
vt 0.75000 0.01563
vt 0.79688 0.01563
vt 0.79688 0.20313
vt 0.82813 0.20313
vt 0.82813 0.01563
vt 0.87500 0.01563
vt 0.87500 0.20313
vt 0.90625 0.20313
vt 0.90625 0.01563
vt 0.95313 0.01563
vt 0.95313 0.20313
vt 0.01563 0.46875
vt 0.01563 0.28125
vt 0.06250 0.28125
vt 0.06250 0.46875
vt 0.09375 0.46875
vt 0.09375 0.28125
vt 0.14063 0.28125
vt 0.14063 0.46875
vt 0.17188 0.46875
vt 0.17188 0.28125
vt 0.21875 0.28125
vt 0.21875 0.46875
vt 0.25000 0.46875
vt 0.25000 0.28125
vt 0.29688 0.28125
vt 0.29688 0.46875
vt 0.32813 0.46875
vt 0.32813 0.28125
vt 0.37500 0.28125
vt 0.37500 0.46875
vt 0.40625 0.46875
vt 0.40625 0.28125
vt 0.45313 0.28125
vt 0.45313 0.46875
vt 0.48438 0.46875
vt 0.48438 0.28125
vt 0.53125 0.28125
vt 0.53125 0.46875
vt 0.56250 0.46875
vt 0.56250 0.28125
vt 0.60938 0.28125
vt 0.60938 0.46875
vt 0.64063 0.46875
vt 0.64063 0.28125
vt 0.68750 0.28125
vt 0.68750 0.46875
vt 0.71875 0.42188
vt 0.71875 0.28125
vt 0.95313 0.28125
vt 0.95313 0.42188
vt 0.01563 0.59375
vt 0.01563 0.50000
vt 0.06250 0.50000
vt 0.06250 0.59375
vt 0.09375 0.59375
vt 0.09375 0.50000
vt 0.14063 0.50000
vt 0.14063 0.59375
vt 0.17188 0.59375
vt 0.17188 0.50000
vt 0.21875 0.50000
vt 0.21875 0.59375
vt 0.25000 0.59375
vt 0.25000 0.50000
vt 0.29688 0.50000
vt 0.29688 0.59375
vt 0.32813 0.59375
vt 0.32813 0.50000
vt 0.37500 0.50000
vt 0.37500 0.59375
vt 0.40625 0.59375
vt 0.40625 0.50000
vt 0.45313 0.50000
vt 0.45313 0.59375
vt 0.48438 0.54688
vt 0.48438 0.50000
vt 0.71875 0.50000
vt 0.71875 0.54688
vt 0.75000 0.54688
vt 0.75000 0.50000
vt 0.98438 0.50000
vt 0.98438 0.54688
vt 0.01563 0.67188
vt 0.01563 0.62500
vt 0.25000 0.62500
vt 0.25000 0.67188
vt 0.28125 0.67188
vt 0.28125 0.62500
vt 0.51563 0.62500
vt 0.51563 0.67188
vt 0.54688 0.67188
vt 0.54688 0.62500
vt 0.78125 0.62500
vt 0.78125 0.67188
vt 0.01563 0.75000
vt 0.01563 0.70313
vt 0.25000 0.70313
vt 0.25000 0.75000
vt 0.28125 0.75000
vt 0.28125 0.70313
vt 0.51563 0.70313
vt 0.51563 0.75000
vt 0.54688 0.75000
vt 0.54688 0.70313
vt 0.78125 0.70313
vt 0.78125 0.75000
vt 0.01563 0.82813
vt 0.01563 0.78125
vt 0.25000 0.78125
vt 0.25000 0.82813
vt 0.81250 0.67188
vt 0.81250 0.62500
vt 0.95313 0.62500
vt 0.95313 0.67188
vt 0.81250 0.75000
vt 0.81250 0.70313
vt 0.95313 0.70313
vt 0.95313 0.75000
vt 0.28125 0.82813
vt 0.28125 0.78125
vt 0.42188 0.78125
vt 0.42188 0.82813
vt 0.45313 0.82813
vt 0.45313 0.78125
vt 0.59375 0.78125
vt 0.59375 0.82813
vt 0.62500 0.82813
vt 0.62500 0.78125
vt 0.76563 0.78125
vt 0.76563 0.82813
vt 0.79688 0.82813
vt 0.79688 0.78125
vt 0.93750 0.78125
vt 0.93750 0.82813
vt 0.01563 0.90625
vt 0.01563 0.85938
vt 0.06250 0.85938
vt 0.06250 0.90625
vt 0.09375 0.90625
vt 0.09375 0.85938
vt 0.14063 0.85938
vt 0.14063 0.90625
vt 0.17188 0.90625
vt 0.17188 0.85938
vt 0.21875 0.85938
vt 0.21875 0.90625
vt 0.25000 0.90625
vt 0.25000 0.85938
vt 0.29688 0.85938
vt 0.29688 0.90625
vt 0.32813 0.90625
vt 0.32813 0.85938
vt 0.37500 0.85938
vt 0.37500 0.90625
vt 0.40625 0.90625
vt 0.40625 0.85938
vt 0.45313 0.85938
vt 0.45313 0.90625
vt 0.48438 0.90625
vt 0.48438 0.85938
vt 0.53125 0.85938
vt 0.53125 0.90625
vt 0.56250 0.90625
vt 0.56250 0.85938
vt 0.60938 0.85938
vt 0.60938 0.90625
vt 0.64063 0.90625
vt 0.64063 0.85938
vt 0.68750 0.85938
vt 0.68750 0.90625
vt 0.71875 0.90625
vt 0.71875 0.85938
vt 0.76563 0.85938
vt 0.76563 0.90625
vt 0.06250 0.20313
vt 0.06250 0.10938
vt 0.06250 0.06250
vt 0.01563 0.10938
vt 0.01563 0.20313
vt 0.01563 0.06250
vt 0.14063 0.20313
vt 0.14063 0.10938
vt 0.14063 0.06250
vt 0.09375 0.10938
vt 0.09375 0.20313
vt 0.09375 0.06250
vt 0.21875 0.20313
vt 0.35938 0.20313
vt 0.90625 0.28125
vt 0.76563 0.28125
vt 0.90625 0.42188
vt 0.76563 0.42188
vt 0.67188 0.50000
vt 0.53125 0.50000
vt 0.93750 0.54688
vt 0.79688 0.54688
vt 0.79688 0.50000
vt 0.93750 0.50000
vt 0.06250 0.67188
vt 0.20313 0.62500
vt 0.06250 0.62500
vt 0.46875 0.62500
vt 0.32813 0.62500
vt 0.73438 0.62500
vt 0.59375 0.62500
vt 0.20313 0.75000
vt 0.06250 0.70313
vt 0.20313 0.70313
vt 0.73438 0.75000
vt 0.59375 0.75000
vt 0.73438 0.70313
vt 0.59375 0.70313
vt 0.20313 0.82813
vt 0.06250 0.82813
vt 0.06250 0.78125
vt 0.20313 0.78125

g Chair2
usemtl Chair2_Material
f  63/4/3 30/1/3 20/209/3
f  20/209/3 51/205/3 63/4/3
f  51/205/3 20/209/3 19/208/3
f  19/208/3 52/206/3 51/205/3
f  52/206/3 19/208/3 28/210/3
f  28/210/3 61/207/3 52/206/3
f  61/207/3 28/210/3 26/2/3
f  26/2/3 65/3/3 61/207/3
f  29/8/4 64/5/4 58/215/4
f  58/215/4 21/211/4 29/8/4
f  21/211/4 58/215/4 57/214/4
f  57/214/4 22/212/4 21/211/4
f  22/212/4 57/214/4 62/216/4
f  62/216/4 27/213/4 22/212/4
f  27/213/4 62/216/4 70/6/4
f  70/6/4 25/7/4 27/213/4
f  66/217/5 65/9/5 59/10/5
f  59/10/5 60/11/5 66/217/5
f  69/218/5 66/217/5 60/11/5
f  60/11/5 70/12/5 69/218/5
f  11/14/3 43/16/3 12/13/3
f  11/14/3 44/15/3 43/16/3
f  7/18/3 39/20/3 8/17/3
f  7/18/3 40/19/3 39/20/3
f  15/22/3 47/24/3 16/21/3
f  15/22/3 48/23/3 47/24/3
f  41/26/4 5/28/4 42/25/4
f  41/26/4 6/27/4 5/28/4
f  37/30/4 1/32/4 38/29/4
f  37/30/4 2/31/4 1/32/4
f  2/34/2 4/36/2 1/33/2
f  2/34/2 3/35/2 4/36/2
f  3/38/3 35/40/3 4/37/3
f  3/38/3 36/39/3 35/40/3
f  36/42/1 38/44/1 35/41/1
f  36/42/1 37/43/1 38/44/1
f  14/46/2 16/48/2 13/45/2
f  14/46/2 15/47/2 16/48/2
f  10/50/2 12/52/2 9/49/2
f  10/50/2 11/51/2 12/52/2
f  40/54/1 42/56/1 39/53/1
f  40/54/1 41/55/1 42/56/1
f  6/58/2 8/60/2 5/57/2
f  6/58/2 7/59/2 8/60/2
f  48/62/1 50/64/1 47/61/1
f  48/62/1 49/63/1 50/64/1
f  44/66/1 46/68/1 43/65/1
f  44/66/1 45/67/1 46/68/1
f  45/70/4 9/72/4 46/69/4
f  45/70/4 10/71/4 9/72/4
f  49/74/4 13/76/4 50/73/4
f  49/74/4 14/75/4 13/76/4
f  5/222/6 8/77/6 35/78/6
f  35/78/6 38/220/6 5/222/6
f  16/221/6 5/222/6 38/220/6
f  38/220/6 43/219/6 16/221/6
f  13/80/6 16/221/6 43/219/6
f  43/219/6 46/79/6 13/80/6
f  56/82/1 58/84/1 55/81/1
f  56/82/1 57/83/1 58/84/1
f  52/86/1 54/88/1 51/85/1
f  52/86/1 53/87/1 54/88/1
f  18/90/2 20/92/2 17/89/2
f  18/90/2 19/91/2 20/92/2
f  22/94/2 24/96/2 21/93/2
f  22/94/2 23/95/2 24/96/2
f  23/98/3 55/100/3 24/97/3
f  23/98/3 56/99/3 55/100/3
f  53/102/4 17/104/4 54/101/4
f  53/102/4 18/103/4 17/104/4
f  64/108/1 63/105/1 51/106/1
f  51/106/1 58/107/1 64/108/1
f  58/107/1 51/106/1 54/224/1
f  54/224/1 55/223/1 58/107/1
f  53/226/1 52/109/1 61/110/1
f  61/110/1 56/225/1 53/226/1
f  56/225/1 61/110/1 67/227/1
f  67/227/1 57/112/1 56/225/1
f  57/112/1 67/227/1 68/228/1
f  68/228/1 62/111/1 57/112/1
f  65/229/3 26/113/3 4/114/3
f  4/114/3 59/116/3 65/229/3
f  59/116/3 4/114/3 35/231/3
f  35/231/3 39/115/3 59/116/3
f  39/115/3 35/231/3 8/230/3
f  60/120/1 59/117/1 39/118/1
f  39/118/1 50/119/1 60/120/1
f  50/119/1 39/118/1 42/233/1
f  42/233/1 47/232/1 50/119/1
f  30/124/2 29/121/2 21/122/2
f  21/122/2 20/123/2 30/124/2
f  20/123/2 21/122/2 24/235/2
f  24/235/2 17/234/2 20/123/2
f  70/236/4 60/125/4 50/126/4
f  50/126/4 25/128/4 70/236/4
f  25/128/4 50/126/4 13/237/4
f  13/237/4 9/127/4 25/128/4
f  9/127/4 13/237/4 46/238/4
f  30/129/5 63/130/5 29/132/5
f  63/130/5 64/131/5 29/132/5
f  23/240/2 22/133/2 27/134/2
f  27/134/2 18/239/2 23/240/2
f  18/239/2 27/134/2 34/242/2
f  34/242/2 19/136/2 18/239/2
f  19/136/2 34/242/2 31/241/2
f  31/241/2 28/135/2 19/136/2
f  33/244/2 25/137/2 9/138/2
f  9/138/2 32/243/2 33/244/2
f  32/243/2 9/138/2 12/245/2
f  12/245/2 26/140/2 32/243/2
f  26/140/2 12/245/2 1/246/2
f  1/246/2 4/139/2 26/140/2
f  67/141/6 31/142/6 68/144/6
f  31/142/6 34/143/6 68/144/6
f  54/145/6 17/146/6 55/148/6
f  17/146/6 24/147/6 55/148/6
f  42/149/6 5/150/6 47/152/6
f  5/150/6 16/151/6 47/152/6
f  18/153/5 53/154/5 23/156/5
f  53/154/5 56/155/5 23/156/5
f  32/157/5 66/158/5 33/160/5
f  66/158/5 69/159/5 33/160/5
f  38/161/6 1/162/6 43/164/6
f  1/162/6 12/163/6 43/164/6
f  36/165/6 3/166/6 37/168/6
f  3/166/6 2/167/6 37/168/6
f  66/170/4 31/172/4 67/169/4
f  66/170/4 32/171/4 31/172/4
f  40/173/6 7/174/6 41/176/6
f  7/174/6 6/175/6 41/176/6
f  48/177/6 15/178/6 49/180/6
f  15/178/6 14/179/6 49/180/6
f  44/181/6 11/182/6 45/184/6
f  11/182/6 10/183/6 45/184/6
f  65/186/1 67/188/1 61/185/1
f  65/186/1 66/187/1 67/188/1
f  32/190/2 28/192/2 31/189/2
f  32/190/2 26/191/2 28/192/2
f  69/194/1 62/196/1 68/193/1
f  69/194/1 70/195/1 62/196/1
f  25/198/2 34/200/2 27/197/2
f  25/198/2 33/199/2 34/200/2
f  33/202/3 68/204/3 34/201/3
f  33/202/3 69/203/3 68/204/3
