# This file was created with Minddesk Qubicle 2.0
# Get Qubicle at www.minddesk.com

mtllib closet2.mtl

vn 0.0 0.0 1.0
vn 0.0 0.0 -1.0
vn -1.0 0.0 0.0
vn 1.0 0.0 0.0
vn 0.0 1.0 0.0
vn 0.0 -1.0 0.0

v 58.50000 18.50000 -70.50000
v 58.50000 0.50000 -70.50000
v 46.50000 0.50000 -70.50000
v 46.50000 18.50000 -70.50000
v 59.50000 19.50000 -70.50000
v 59.50000 18.50000 -70.50000
v 45.50000 18.50000 -70.50000
v 45.50000 19.50000 -70.50000
v 47.50000 0.50000 -70.50000
v 47.50000 -0.50000 -70.50000
v 46.50000 -0.50000 -70.50000
v 47.50000 0.50000 -64.50000
v 47.50000 -0.50000 -64.50000
v 46.50000 -0.50000 -64.50000
v 46.50000 0.50000 -64.50000
v 58.50000 -0.50000 -70.50000
v 57.50000 -0.50000 -70.50000
v 57.50000 0.50000 -70.50000
v 58.50000 0.50000 -64.50000
v 58.50000 -0.50000 -64.50000
v 57.50000 -0.50000 -64.50000
v 57.50000 0.50000 -64.50000
v 46.50000 18.50000 -63.50000
v 46.50000 0.50000 -63.50000
v 58.50000 0.50000 -63.50000
v 58.50000 18.50000 -63.50000
v 45.50000 19.50000 -62.50000
v 45.50000 18.50000 -62.50000
v 59.50000 18.50000 -62.50000
v 59.50000 19.50000 -62.50000
v 46.50000 0.50000 -69.50000
v 46.50000 -0.50000 -69.50000
v 47.50000 -0.50000 -69.50000
v 47.50000 0.50000 -69.50000
v 46.50000 -0.50000 -63.50000
v 47.50000 -0.50000 -63.50000
v 47.50000 0.50000 -63.50000
v 57.50000 0.50000 -69.50000
v 57.50000 -0.50000 -69.50000
v 58.50000 -0.50000 -69.50000
v 58.50000 0.50000 -69.50000
v 57.50000 0.50000 -63.50000
v 57.50000 -0.50000 -63.50000
v 58.50000 -0.50000 -63.50000
v 45.50000 18.50000 -63.50000
v 59.50000 18.50000 -63.50000

vt 0.00781 0.42969
vt 0.00781 0.00781
vt 0.28906 0.00781
vt 0.28906 0.42969
vt 0.30469 0.42969
vt 0.30469 0.00781
vt 0.58594 0.00781
vt 0.58594 0.42969
vt 0.60156 0.42969
vt 0.60156 0.00781
vt 0.76563 0.00781
vt 0.76563 0.42969
vt 0.78125 0.42969
vt 0.78125 0.00781
vt 0.94531 0.00781
vt 0.94531 0.42969
vt 0.00781 0.63281
vt 0.00781 0.44531
vt 0.33594 0.44531
vt 0.33594 0.63281
vt 0.96094 0.17188
vt 0.96094 0.00781
vt 0.98438 0.00781
vt 0.98438 0.17188
vt 0.96094 0.35156
vt 0.96094 0.18750
vt 0.98438 0.18750
vt 0.98438 0.35156
vt 0.35156 0.56250
vt 0.35156 0.44531
vt 0.63281 0.44531
vt 0.63281 0.56250
vt 0.64844 0.46875
vt 0.64844 0.44531
vt 0.97656 0.44531
vt 0.97656 0.46875
vt 0.64844 0.50781
vt 0.64844 0.48438
vt 0.97656 0.48438
vt 0.97656 0.50781
vt 0.64844 0.54688
vt 0.64844 0.52344
vt 0.97656 0.52344
vt 0.97656 0.54688
vt 0.35156 0.60156
vt 0.35156 0.57813
vt 0.58594 0.57813
vt 0.58594 0.60156
vt 0.60156 0.60156
vt 0.60156 0.57813
vt 0.83594 0.57813
vt 0.83594 0.60156
vt 0.00781 0.67188
vt 0.00781 0.64844
vt 0.19531 0.64844
vt 0.19531 0.67188
vt 0.21094 0.67188
vt 0.21094 0.64844
vt 0.39844 0.64844
vt 0.39844 0.67188
vt 0.96094 0.39063
vt 0.96094 0.36719
vt 0.98438 0.36719
vt 0.98438 0.39063
vt 0.96094 0.42969
vt 0.96094 0.40625
vt 0.98438 0.40625
vt 0.98438 0.42969
vt 0.85156 0.60156
vt 0.85156 0.57813
vt 0.87500 0.57813
vt 0.87500 0.60156
vt 0.89063 0.60156
vt 0.89063 0.57813
vt 0.91406 0.57813
vt 0.91406 0.60156
vt 0.92969 0.60156
vt 0.92969 0.57813
vt 0.95313 0.57813
vt 0.95313 0.60156
vt 0.96875 0.60156
vt 0.96875 0.57813
vt 0.99219 0.57813
vt 0.99219 0.60156
vt 0.41406 0.67188
vt 0.41406 0.64844
vt 0.43750 0.64844
vt 0.43750 0.67188
vt 0.45313 0.67188
vt 0.45313 0.64844
vt 0.47656 0.64844
vt 0.47656 0.67188
vt 0.49219 0.67188
vt 0.49219 0.64844
vt 0.51563 0.64844
vt 0.51563 0.67188
vt 0.53125 0.67188
vt 0.53125 0.64844
vt 0.55469 0.64844
vt 0.55469 0.67188
vt 0.57031 0.67188
vt 0.57031 0.64844
vt 0.59375 0.64844
vt 0.59375 0.67188
vt 0.60938 0.67188
vt 0.60938 0.64844
vt 0.63281 0.64844
vt 0.63281 0.67188
vt 0.64844 0.67188
vt 0.64844 0.64844
vt 0.67188 0.64844
vt 0.67188 0.67188
vt 0.68750 0.67188
vt 0.68750 0.64844
vt 0.71094 0.64844
vt 0.71094 0.67188
vt 0.72656 0.67188
vt 0.72656 0.64844
vt 0.75000 0.64844
vt 0.75000 0.67188
vt 0.76563 0.67188
vt 0.76563 0.64844
vt 0.78906 0.64844
vt 0.78906 0.67188
vt 0.80469 0.67188
vt 0.80469 0.64844
vt 0.82813 0.64844
vt 0.82813 0.67188
vt 0.84375 0.67188
vt 0.84375 0.64844
vt 0.86719 0.64844
vt 0.86719 0.67188
vt 0.88281 0.67188
vt 0.88281 0.64844
vt 0.90625 0.64844
vt 0.90625 0.67188
vt 0.92188 0.67188
vt 0.92188 0.64844
vt 0.94531 0.64844
vt 0.94531 0.67188
vt 0.03125 0.00781
vt 0.26563 0.00781
vt 0.56250 0.00781
vt 0.32813 0.00781
vt 0.74219 0.00781
vt 0.62500 0.00781
vt 0.92188 0.00781
vt 0.80469 0.00781
vt 0.37500 0.44531
vt 0.60938 0.44531
vt 0.37500 0.56250
vt 0.60938 0.56250
vt 0.67188 0.44531
vt 0.95313 0.44531
vt 0.67188 0.52344
vt 0.95313 0.52344
vt 0.03125 0.64844
vt 0.37500 0.64844

g closet2
usemtl closet2_Material
f  26/4/1 23/1/1 24/2/1
f  24/2/1 25/3/1 26/4/1
f  25/3/1 24/2/1 37/141/1
f  37/141/1 42/142/1 25/3/1
f  4/8/2 1/5/2 2/6/2
f  2/6/2 3/7/2 4/8/2
f  3/7/2 2/6/2 18/144/2
f  18/144/2 9/143/2 3/7/2
f  23/12/3 4/9/3 3/10/3
f  3/10/3 24/11/3 23/12/3
f  24/11/3 3/10/3 31/146/3
f  31/146/3 15/145/3 24/11/3
f  1/16/4 26/13/4 25/14/4
f  25/14/4 2/15/4 1/16/4
f  2/15/4 25/14/4 19/148/4
f  19/148/4 41/147/4 2/15/4
f  8/17/5 27/18/5 5/20/5
f  27/18/5 30/19/5 5/20/5
f  26/21/6 1/22/6 46/24/6
f  1/22/6 6/23/6 46/24/6
f  45/25/6 7/26/6 23/28/6
f  7/26/6 4/27/6 23/28/6
f  12/151/6 15/29/6 31/30/6
f  31/30/6 34/149/6 12/151/6
f  22/152/6 12/151/6 34/149/6
f  34/149/6 38/150/6 22/152/6
f  19/32/6 22/152/6 38/150/6
f  38/150/6 41/31/6 19/32/6
f  8/36/2 5/33/2 6/34/2
f  6/34/2 7/35/2 8/36/2
f  7/35/2 6/34/2 1/153/2
f  1/153/2 4/154/2 7/35/2
f  28/38/1 30/40/1 27/37/1
f  28/38/1 29/39/1 30/40/1
f  29/44/6 28/41/6 45/42/6
f  45/42/6 23/155/6 29/44/6
f  46/43/6 29/44/6 23/155/6
f  23/155/6 26/156/6 46/43/6
f  34/45/6 9/46/6 38/48/6
f  9/46/6 18/47/6 38/48/6
f  37/49/6 12/50/6 42/52/6
f  12/50/6 22/51/6 42/52/6
f  5/56/4 30/53/4 29/54/4
f  29/54/4 6/55/4 5/56/4
f  6/55/4 29/54/4 46/157/4
f  27/60/3 8/57/3 7/58/3
f  7/58/3 28/59/3 27/60/3
f  28/59/3 7/58/3 45/158/3
f  35/62/1 37/64/1 24/61/1
f  35/62/1 36/63/1 37/64/1
f  43/66/1 25/68/1 42/65/1
f  43/66/1 44/67/1 25/68/1
f  39/70/1 41/72/1 38/69/1
f  39/70/1 40/71/1 41/72/1
f  13/74/2 15/76/2 12/73/2
f  13/74/2 14/75/2 15/76/2
f  10/78/2 3/80/2 9/77/2
f  10/78/2 11/79/2 3/80/2
f  16/82/2 18/84/2 2/81/2
f  16/82/2 17/83/2 18/84/2
f  32/86/1 34/88/1 31/85/1
f  32/86/1 33/87/1 34/88/1
f  20/90/2 22/92/2 19/89/2
f  20/90/2 21/91/2 22/92/2
f  32/93/6 11/94/6 33/96/6
f  11/94/6 10/95/6 33/96/6
f  44/98/4 19/100/4 25/97/4
f  44/98/4 20/99/4 19/100/4
f  40/102/4 2/104/4 41/101/4
f  40/102/4 16/103/4 2/104/4
f  43/105/6 21/106/6 44/108/6
f  21/106/6 20/107/6 44/108/6
f  39/109/6 17/110/6 40/112/6
f  17/110/6 16/111/6 40/112/6
f  35/113/6 14/114/6 36/116/6
f  14/114/6 13/115/6 36/116/6
f  17/118/3 38/120/3 18/117/3
f  17/118/3 39/119/3 38/120/3
f  14/122/3 24/124/3 15/121/3
f  14/122/3 35/123/3 24/124/3
f  11/126/3 31/128/3 3/125/3
f  11/126/3 32/127/3 31/128/3
f  36/130/4 12/132/4 37/129/4
f  36/130/4 13/131/4 12/132/4
f  33/134/4 9/136/4 34/133/4
f  33/134/4 10/135/4 9/136/4
f  21/138/3 42/140/3 22/137/3
f  21/138/3 43/139/3 42/140/3
