# This file was created with Minddesk Qubicle 2.0
# Get Qubicle at www.minddesk.com

mtllib Coffe_Table.mtl

vn 0.0 0.0 1.0
vn 0.0 0.0 -1.0
vn -1.0 0.0 0.0
vn 1.0 0.0 0.0
vn 0.0 1.0 0.0
vn 0.0 -1.0 0.0

v -8.50000 3.50000 -25.50000
v -8.50000 -0.50000 -25.50000
v -9.50000 -0.50000 -25.50000
v -9.50000 3.50000 -25.50000
v 4.50000 3.50000 -25.50000
v 4.50000 -0.50000 -25.50000
v 3.50000 -0.50000 -25.50000
v 3.50000 3.50000 -25.50000
v -8.50000 3.50000 -20.50000
v -8.50000 1.50000 -20.50000
v -9.50000 1.50000 -20.50000
v -9.50000 3.50000 -20.50000
v 4.50000 3.50000 -20.50000
v 4.50000 1.50000 -20.50000
v 3.50000 1.50000 -20.50000
v 3.50000 3.50000 -20.50000
v 4.50000 4.50000 -25.50000
v -9.50000 4.50000 -25.50000
v 3.50000 1.50000 -24.50000
v 3.50000 0.50000 -24.50000
v -8.50000 0.50000 -24.50000
v -8.50000 1.50000 -24.50000
v -8.50000 0.50000 -20.50000
v -8.50000 -0.50000 -20.50000
v -9.50000 -0.50000 -20.50000
v -9.50000 0.50000 -20.50000
v 4.50000 0.50000 -20.50000
v 4.50000 -0.50000 -20.50000
v 3.50000 -0.50000 -20.50000
v 3.50000 0.50000 -20.50000
v -9.50000 3.50000 -19.50000
v -9.50000 -0.50000 -19.50000
v -8.50000 -0.50000 -19.50000
v -8.50000 3.50000 -19.50000
v 3.50000 3.50000 -19.50000
v 3.50000 -0.50000 -19.50000
v 4.50000 -0.50000 -19.50000
v 4.50000 3.50000 -19.50000
v -9.50000 3.50000 -24.50000
v -9.50000 1.50000 -24.50000
v -8.50000 3.50000 -24.50000
v 3.50000 3.50000 -24.50000
v 4.50000 1.50000 -24.50000
v 4.50000 3.50000 -24.50000
v -9.50000 4.50000 -19.50000
v 4.50000 4.50000 -19.50000
v -9.50000 0.50000 -24.50000
v -9.50000 -0.50000 -24.50000
v -8.50000 -0.50000 -24.50000
v 3.50000 -0.50000 -24.50000
v 4.50000 -0.50000 -24.50000
v 4.50000 0.50000 -24.50000
v -9.50000 1.50000 -25.50000
v -9.50000 1.50000 -19.50000
v -9.50000 0.50000 -25.50000
v -9.50000 0.50000 -19.50000
v 4.50000 1.50000 -25.50000
v 4.50000 1.50000 -19.50000
v 4.50000 0.50000 -19.50000
v 4.50000 0.50000 -25.50000

vt 0.00781 0.29688
vt 0.00781 0.01563
vt 0.33594 0.01563
vt 0.33594 0.29688
vt 0.35156 0.20313
vt 0.35156 0.01563
vt 0.67969 0.01563
vt 0.67969 0.20313
vt 0.00781 0.51563
vt 0.00781 0.32813
vt 0.33594 0.32813
vt 0.33594 0.51563
vt 0.35156 0.51563
vt 0.35156 0.32813
vt 0.67969 0.32813
vt 0.67969 0.51563
vt 0.69531 0.20313
vt 0.69531 0.01563
vt 0.71875 0.01563
vt 0.71875 0.20313
vt 0.73438 0.20313
vt 0.73438 0.01563
vt 0.75781 0.01563
vt 0.75781 0.20313
vt 0.77344 0.20313
vt 0.77344 0.01563
vt 0.79688 0.01563
vt 0.79688 0.20313
vt 0.81250 0.20313
vt 0.81250 0.01563
vt 0.83594 0.01563
vt 0.83594 0.20313
vt 0.85156 0.20313
vt 0.85156 0.01563
vt 0.87500 0.01563
vt 0.87500 0.20313
vt 0.89063 0.20313
vt 0.89063 0.01563
vt 0.91406 0.01563
vt 0.91406 0.20313
vt 0.92969 0.20313
vt 0.92969 0.01563
vt 0.95313 0.01563
vt 0.95313 0.20313
vt 0.96875 0.20313
vt 0.96875 0.01563
vt 0.99219 0.01563
vt 0.99219 0.20313
vt 0.69531 0.42188
vt 0.69531 0.32813
vt 0.71875 0.32813
vt 0.71875 0.42188
vt 0.73438 0.42188
vt 0.73438 0.32813
vt 0.75781 0.32813
vt 0.75781 0.42188
vt 0.77344 0.42188
vt 0.77344 0.32813
vt 0.79688 0.32813
vt 0.79688 0.42188
vt 0.81250 0.42188
vt 0.81250 0.32813
vt 0.83594 0.32813
vt 0.83594 0.42188
vt 0.85156 0.42188
vt 0.85156 0.32813
vt 0.87500 0.32813
vt 0.87500 0.42188
vt 0.89063 0.42188
vt 0.89063 0.32813
vt 0.91406 0.32813
vt 0.91406 0.42188
vt 0.92969 0.42188
vt 0.92969 0.32813
vt 0.95313 0.32813
vt 0.95313 0.42188
vt 0.96875 0.42188
vt 0.96875 0.32813
vt 0.99219 0.32813
vt 0.99219 0.42188
vt 0.35156 0.28125
vt 0.35156 0.23438
vt 0.67969 0.23438
vt 0.67969 0.28125
vt 0.00781 0.59375
vt 0.00781 0.54688
vt 0.33594 0.54688
vt 0.33594 0.59375
vt 0.69531 0.28125
vt 0.69531 0.23438
vt 0.97656 0.23438
vt 0.97656 0.28125
vt 0.69531 0.50000
vt 0.69531 0.45313
vt 0.97656 0.45313
vt 0.97656 0.50000
vt 0.35156 0.59375
vt 0.35156 0.54688
vt 0.63281 0.54688
vt 0.63281 0.59375
vt 0.64844 0.59375
vt 0.64844 0.54688
vt 0.92969 0.54688
vt 0.92969 0.59375
vt 0.00781 0.67188
vt 0.00781 0.62500
vt 0.14844 0.62500
vt 0.14844 0.67188
vt 0.16406 0.67188
vt 0.16406 0.62500
vt 0.30469 0.62500
vt 0.30469 0.67188
vt 0.32031 0.67188
vt 0.32031 0.62500
vt 0.46094 0.62500
vt 0.46094 0.67188
vt 0.47656 0.67188
vt 0.47656 0.62500
vt 0.61719 0.62500
vt 0.61719 0.67188
vt 0.94531 0.59375
vt 0.94531 0.54688
vt 0.96875 0.54688
vt 0.96875 0.59375
vt 0.63281 0.67188
vt 0.63281 0.62500
vt 0.65625 0.62500
vt 0.65625 0.67188
vt 0.67188 0.67188
vt 0.67188 0.62500
vt 0.69531 0.62500
vt 0.69531 0.67188
vt 0.71094 0.67188
vt 0.71094 0.62500
vt 0.73438 0.62500
vt 0.73438 0.67188
vt 0.75000 0.67188
vt 0.75000 0.62500
vt 0.77344 0.62500
vt 0.77344 0.67188
vt 0.78906 0.67188
vt 0.78906 0.62500
vt 0.81250 0.62500
vt 0.81250 0.67188
vt 0.82813 0.67188
vt 0.82813 0.62500
vt 0.85156 0.62500
vt 0.85156 0.67188
vt 0.86719 0.67188
vt 0.86719 0.62500
vt 0.89063 0.62500
vt 0.89063 0.67188
vt 0.90625 0.67188
vt 0.90625 0.62500
vt 0.92969 0.62500
vt 0.92969 0.67188
vt 0.94531 0.67188
vt 0.94531 0.62500
vt 0.96875 0.62500
vt 0.96875 0.67188
vt 0.00781 0.75000
vt 0.00781 0.70313
vt 0.03125 0.70313
vt 0.03125 0.75000
vt 0.04688 0.75000
vt 0.04688 0.70313
vt 0.07031 0.70313
vt 0.07031 0.75000
vt 0.65625 0.01563
vt 0.37500 0.01563
vt 0.65625 0.20313
vt 0.37500 0.20313
vt 0.31250 0.32813
vt 0.03125 0.32813
vt 0.03125 0.51563
vt 0.31250 0.51563
vt 0.37500 0.32813
vt 0.65625 0.32813
vt 0.37500 0.51563
vt 0.65625 0.51563
vt 0.69531 0.10938
vt 0.69531 0.06250
vt 0.73438 0.10938
vt 0.73438 0.06250
vt 0.79688 0.10938
vt 0.79688 0.06250
vt 0.81250 0.10938
vt 0.81250 0.06250
vt 0.87500 0.10938
vt 0.87500 0.06250
vt 0.91406 0.10938
vt 0.91406 0.06250
vt 0.92969 0.10938
vt 0.92969 0.06250
vt 0.99219 0.10938
vt 0.99219 0.06250
vt 0.37500 0.23438
vt 0.65625 0.23438
vt 0.03125 0.54688
vt 0.31250 0.54688
vt 0.12500 0.62500
vt 0.03125 0.62500
vt 0.28125 0.62500
vt 0.18750 0.62500
vt 0.34375 0.67188
vt 0.43750 0.67188
vt 0.43750 0.62500
vt 0.34375 0.62500
vt 0.50000 0.67188
vt 0.59375 0.67188
vt 0.59375 0.62500
vt 0.50000 0.62500

g Coffe_Table
usemtl Coffe_Table_Material
f  18/1/5 45/2/5 17/4/5
f  45/2/5 46/3/5 17/4/5
f  9/172/6 12/5/6 39/6/6
f  39/6/6 41/170/6 9/172/6
f  16/171/6 9/172/6 41/170/6
f  41/170/6 42/169/6 16/171/6
f  13/8/6 16/171/6 42/169/6
f  42/169/6 44/7/6 13/8/6
f  23/175/6 26/9/6 47/10/6
f  47/10/6 21/174/6 23/175/6
f  30/176/6 23/175/6 21/174/6
f  21/174/6 20/173/6 30/176/6
f  27/12/6 30/176/6 20/173/6
f  20/173/6 52/11/6 27/12/6
f  22/179/5 40/13/5 11/14/5
f  11/14/5 10/177/5 22/179/5
f  19/180/5 22/179/5 10/177/5
f  10/177/5 15/178/5 19/180/5
f  43/16/5 19/180/5 15/178/5
f  15/178/5 14/15/5 43/16/5
f  34/20/1 31/17/1 54/181/1
f  54/181/1 33/19/1 34/20/1
f  33/19/1 54/181/1 56/182/1
f  56/182/1 32/18/1 33/19/1
f  35/24/3 16/21/3 15/183/3
f  15/183/3 36/23/3 35/24/3
f  36/23/3 15/183/3 30/184/3
f  30/184/3 29/22/3 36/23/3
f  42/28/3 8/25/3 7/26/3
f  7/26/3 19/185/3 42/28/3
f  19/185/3 7/26/3 50/27/3
f  50/27/3 20/186/3 19/185/3
f  1/32/4 41/29/4 22/187/4
f  22/187/4 2/31/4 1/32/4
f  2/31/4 22/187/4 21/188/4
f  21/188/4 49/30/4 2/31/4
f  38/36/1 35/33/1 36/34/1
f  36/34/1 58/189/1 38/36/1
f  58/189/1 36/34/1 37/35/1
f  37/35/1 59/190/1 58/189/1
f  9/40/4 34/37/4 33/38/4
f  33/38/4 10/191/4 9/40/4
f  10/191/4 33/38/4 24/39/4
f  24/39/4 23/192/4 10/191/4
f  8/44/2 5/41/2 57/193/2
f  57/193/2 7/43/2 8/44/2
f  7/43/2 57/193/2 60/194/2
f  60/194/2 6/42/2 7/43/2
f  4/48/2 1/45/2 2/46/2
f  2/46/2 53/195/2 4/48/2
f  53/195/2 2/46/2 3/47/2
f  3/47/2 55/196/2 53/195/2
f  40/50/1 41/52/1 39/49/1
f  40/50/1 22/51/1 41/52/1
f  10/54/2 12/56/2 9/53/2
f  10/54/2 11/55/2 12/56/2
f  19/58/1 44/60/1 42/57/1
f  19/58/1 43/59/1 44/60/1
f  53/62/3 39/64/3 4/61/3
f  53/62/3 40/63/3 39/64/3
f  11/66/3 31/68/3 12/65/3
f  11/66/3 54/67/3 31/68/3
f  58/70/4 13/72/4 38/69/4
f  58/70/4 14/71/4 13/72/4
f  43/74/4 5/76/4 44/73/4
f  43/74/4 57/75/4 5/76/4
f  14/78/2 16/80/2 13/77/2
f  14/78/2 15/79/2 16/80/2
f  18/84/2 17/81/2 5/82/2
f  5/82/2 4/83/2 18/84/2
f  4/83/2 5/82/2 8/197/2
f  8/197/2 1/198/2 4/83/2
f  46/88/1 45/85/1 31/86/1
f  31/86/1 38/87/1 46/88/1
f  38/87/1 31/86/1 34/199/1
f  34/199/1 35/200/1 38/87/1
f  20/90/2 22/92/2 19/89/2
f  20/90/2 21/91/2 22/92/2
f  41/93/6 1/94/6 42/96/6
f  1/94/6 8/95/6 42/96/6
f  23/98/1 15/100/1 10/97/1
f  23/98/1 30/99/1 15/100/1
f  34/101/6 9/102/6 35/104/6
f  9/102/6 16/103/6 35/104/6
f  45/108/3 18/105/3 4/106/3
f  4/106/3 31/107/3 45/108/3
f  31/107/3 4/106/3 39/202/3
f  39/202/3 12/201/3 31/107/3
f  17/112/4 46/109/4 38/110/4
f  38/110/4 5/111/4 17/112/4
f  5/111/4 38/110/4 13/204/4
f  13/204/4 44/203/4 5/111/4
f  14/205/4 58/113/4 59/114/4
f  59/114/4 43/206/4 14/205/4
f  43/206/4 59/114/4 27/208/4
f  27/208/4 57/116/4 43/206/4
f  57/116/4 27/208/4 52/207/4
f  52/207/4 60/115/4 57/116/4
f  40/209/3 53/117/3 55/118/3
f  55/118/3 11/210/3 40/209/3
f  11/210/3 55/118/3 47/212/3
f  47/212/3 54/120/3 11/210/3
f  54/120/3 47/212/3 26/211/3
f  26/211/3 56/119/3 54/120/3
f  51/122/4 60/124/4 52/121/4
f  51/122/4 6/123/4 60/124/4
f  37/126/4 27/128/4 59/125/4
f  37/126/4 28/127/4 27/128/4
f  50/129/6 7/130/6 51/132/6
f  7/130/6 6/131/6 51/132/6
f  36/133/6 29/134/6 37/136/6
f  29/134/6 28/135/6 37/136/6
f  48/137/6 3/138/6 49/140/6
f  3/138/6 2/139/6 49/140/6
f  32/141/6 25/142/6 33/144/6
f  25/142/6 24/143/6 33/144/6
f  3/146/3 47/148/3 55/145/3
f  3/146/3 48/147/3 47/148/3
f  48/150/1 21/152/1 47/149/1
f  48/150/1 49/151/1 21/152/1
f  50/154/1 52/156/1 20/153/1
f  50/154/1 51/155/1 52/156/1
f  24/158/2 26/160/2 23/157/2
f  24/158/2 25/159/2 26/160/2
f  28/162/2 30/164/2 27/161/2
f  28/162/2 29/163/2 30/164/2
f  25/166/3 56/168/3 26/165/3
f  25/166/3 32/167/3 56/168/3
