# This file was created with Minddesk Qubicle 2.0
# Get Qubicle at www.minddesk.com

mtllib shelve3.mtl

vn 0.0 0.0 1.0
vn 0.0 0.0 -1.0
vn -1.0 0.0 0.0
vn 1.0 0.0 0.0
vn 0.0 1.0 0.0
vn 0.0 -1.0 0.0

v -23.50000 15.50000 -28.50000
v -23.50000 14.50000 -28.50000
v -26.50000 14.50000 -28.50000
v -26.50000 15.50000 -28.50000
v -24.50000 14.50000 -26.50000
v -24.50000 13.50000 -26.50000
v -26.50000 13.50000 -26.50000
v -26.50000 14.50000 -26.50000
v -24.50000 14.50000 -21.50000
v -24.50000 13.50000 -21.50000
v -26.50000 13.50000 -21.50000
v -26.50000 14.50000 -21.50000
v -25.50000 13.50000 -26.50000
v -25.50000 12.50000 -26.50000
v -26.50000 12.50000 -26.50000
v -25.50000 13.50000 -21.50000
v -25.50000 12.50000 -21.50000
v -26.50000 12.50000 -21.50000
v -26.50000 15.50000 -18.50000
v -26.50000 14.50000 -18.50000
v -23.50000 14.50000 -18.50000
v -23.50000 15.50000 -18.50000
v -26.50000 14.50000 -25.50000
v -26.50000 13.50000 -25.50000
v -24.50000 13.50000 -25.50000
v -24.50000 14.50000 -25.50000
v -26.50000 14.50000 -20.50000
v -26.50000 13.50000 -20.50000
v -24.50000 13.50000 -20.50000
v -24.50000 14.50000 -20.50000
v -26.50000 12.50000 -25.50000
v -25.50000 12.50000 -25.50000
v -25.50000 13.50000 -25.50000
v -26.50000 12.50000 -20.50000
v -25.50000 12.50000 -20.50000
v -25.50000 13.50000 -20.50000
v -23.50000 14.50000 -25.50000
v -23.50000 14.50000 -21.50000
v -23.50000 14.50000 -26.50000
v -23.50000 14.50000 -20.50000

vt 0.01563 0.96875
vt 0.01563 0.03125
vt 0.15625 0.03125
vt 0.15625 0.96875
vt 0.18750 0.40625
vt 0.18750 0.03125
vt 0.32813 0.03125
vt 0.32813 0.40625
vt 0.35938 0.21875
vt 0.35938 0.03125
vt 0.50000 0.03125
vt 0.50000 0.21875
vt 0.53125 0.21875
vt 0.53125 0.03125
vt 0.67188 0.03125
vt 0.67188 0.21875
vt 0.70313 0.21875
vt 0.70313 0.03125
vt 0.75000 0.03125
vt 0.75000 0.21875
vt 0.78125 0.21875
vt 0.78125 0.03125
vt 0.82813 0.03125
vt 0.82813 0.21875
vt 0.35938 0.37500
vt 0.35938 0.28125
vt 0.82813 0.28125
vt 0.82813 0.37500
vt 0.18750 0.56250
vt 0.18750 0.46875
vt 0.65625 0.46875
vt 0.65625 0.56250
vt 0.68750 0.56250
vt 0.68750 0.46875
vt 0.82813 0.46875
vt 0.82813 0.56250
vt 0.18750 0.71875
vt 0.18750 0.62500
vt 0.32813 0.62500
vt 0.32813 0.71875
vt 0.85938 0.12500
vt 0.85938 0.03125
vt 0.95313 0.03125
vt 0.95313 0.12500
vt 0.85938 0.37500
vt 0.85938 0.28125
vt 0.95313 0.28125
vt 0.95313 0.37500
vt 0.85938 0.56250
vt 0.85938 0.46875
vt 0.95313 0.46875
vt 0.95313 0.56250
vt 0.35938 0.71875
vt 0.35938 0.62500
vt 0.45313 0.62500
vt 0.45313 0.71875
vt 0.48438 0.71875
vt 0.48438 0.62500
vt 0.53125 0.62500
vt 0.53125 0.71875
vt 0.56250 0.71875
vt 0.56250 0.62500
vt 0.60938 0.62500
vt 0.60938 0.71875
vt 0.64063 0.71875
vt 0.64063 0.62500
vt 0.68750 0.62500
vt 0.68750 0.71875
vt 0.71875 0.71875
vt 0.71875 0.62500
vt 0.76563 0.62500
vt 0.76563 0.71875
vt 0.79688 0.71875
vt 0.79688 0.62500
vt 0.84375 0.62500
vt 0.84375 0.71875
vt 0.87500 0.71875
vt 0.87500 0.62500
vt 0.92188 0.62500
vt 0.92188 0.71875
vt 0.18750 0.87500
vt 0.18750 0.78125
vt 0.23438 0.78125
vt 0.23438 0.87500
vt 0.26563 0.87500
vt 0.26563 0.78125
vt 0.31250 0.78125
vt 0.31250 0.87500
vt 0.34375 0.87500
vt 0.34375 0.78125
vt 0.39063 0.78125
vt 0.39063 0.87500
vt 0.42188 0.87500
vt 0.42188 0.78125
vt 0.46875 0.78125
vt 0.46875 0.87500
vt 0.50000 0.87500
vt 0.50000 0.78125
vt 0.54688 0.78125
vt 0.54688 0.87500
vt 0.57813 0.87500
vt 0.57813 0.78125
vt 0.62500 0.78125
vt 0.62500 0.87500
vt 0.65625 0.87500
vt 0.65625 0.78125
vt 0.70313 0.78125
vt 0.70313 0.87500
vt 0.73438 0.87500
vt 0.73438 0.78125
vt 0.78125 0.78125
vt 0.78125 0.87500
vt 0.28125 0.03125
vt 0.28125 0.40625
vt 0.45313 0.03125
vt 0.62500 0.21875
vt 0.75000 0.12500
vt 0.70313 0.12500
vt 0.82813 0.12500
vt 0.78125 0.12500
vt 0.68750 0.28125
vt 0.50000 0.28125
vt 0.73438 0.28125
vt 0.45313 0.28125
vt 0.51563 0.46875
vt 0.32813 0.46875
vt 0.28125 0.46875
vt 0.56250 0.46875
vt 0.90625 0.03125
vt 0.90625 0.28125
vt 0.90625 0.46875
vt 0.40625 0.62500

g shelve3
usemtl shelve3_Material
f  4/1/5 19/2/5 1/4/5
f  19/2/5 22/3/5 1/4/5
f  9/114/6 12/5/6 23/6/6
f  23/6/6 26/113/6 9/114/6
f  38/8/6 9/114/6 26/113/6
f  26/113/6 37/7/6 38/8/6
f  21/12/6 20/9/6 27/10/6
f  27/10/6 30/115/6 21/12/6
f  40/11/6 21/12/6 30/115/6
f  5/116/6 8/13/6 3/14/6
f  3/14/6 2/15/6 5/116/6
f  39/16/6 5/116/6 2/15/6
f  23/20/3 8/17/3 7/118/3
f  7/118/3 24/117/3 23/20/3
f  24/117/3 7/118/3 15/18/3
f  15/18/3 31/19/3 24/117/3
f  27/24/3 12/21/3 11/120/3
f  11/120/3 28/119/3 27/24/3
f  28/119/3 11/120/3 18/22/3
f  18/22/3 34/23/3 28/119/3
f  19/28/3 4/25/3 3/26/3
f  3/26/3 20/27/3 19/28/3
f  20/27/3 3/26/3 8/124/3
f  8/124/3 27/123/3 20/27/3
f  27/123/3 8/124/3 23/122/3
f  23/122/3 12/121/3 27/123/3
f  1/32/4 22/29/4 21/30/4
f  21/30/4 2/31/4 1/32/4
f  2/31/4 21/30/4 40/127/4
f  40/127/4 39/128/4 2/31/4
f  39/128/4 40/127/4 38/126/4
f  38/126/4 37/125/4 39/128/4
f  20/34/1 22/36/1 19/33/1
f  20/34/1 21/35/1 22/36/1
f  2/38/2 4/40/2 1/37/2
f  2/38/2 3/39/2 4/40/2
f  8/44/2 5/41/2 6/42/2
f  6/42/2 7/43/2 8/44/2
f  7/43/2 6/42/2 13/129/2
f  26/48/1 23/45/1 24/46/1
f  24/46/1 25/47/1 26/48/1
f  25/47/1 24/46/1 33/130/1
f  30/52/1 27/49/1 28/50/1
f  28/50/1 29/51/1 30/52/1
f  29/51/1 28/50/1 36/131/1
f  12/56/2 9/53/2 10/54/2
f  10/54/2 11/55/2 12/56/2
f  11/55/2 10/54/2 16/132/2
f  31/58/1 33/60/1 24/57/1
f  31/58/1 32/59/1 33/60/1
f  34/62/1 36/64/1 28/61/1
f  34/62/1 35/63/1 36/64/1
f  14/66/2 7/68/2 13/65/2
f  14/66/2 15/67/2 7/68/2
f  17/70/2 11/72/2 16/69/2
f  17/70/2 18/71/2 11/72/2
f  25/74/4 5/76/4 26/73/4
f  25/74/4 6/75/4 5/76/4
f  35/78/4 16/80/4 36/77/4
f  35/78/4 17/79/4 16/80/4
f  29/82/4 9/84/4 30/81/4
f  29/82/4 10/83/4 9/84/4
f  31/85/6 15/86/6 32/88/6
f  15/86/6 14/87/6 32/88/6
f  34/89/6 18/90/6 35/92/6
f  18/90/6 17/91/6 35/92/6
f  26/93/6 5/94/6 37/96/6
f  5/94/6 39/95/6 37/96/6
f  30/97/6 9/98/6 40/100/6
f  9/98/6 38/99/6 40/100/6
f  36/101/6 16/102/6 29/104/6
f  16/102/6 10/103/6 29/104/6
f  32/106/4 13/108/4 33/105/4
f  32/106/4 14/107/4 13/108/4
f  33/109/6 13/110/6 25/112/6
f  13/110/6 6/111/6 25/112/6
